<?xml version="1.0" encoding="utf-8"?>
<!-- Generator: Adobe Illustrator 23.0.1, SVG Export Plug-In . SVG Version: 6.00 Build 0)  -->
<svg version="1.1" xmlns="http://www.w3.org/2000/svg" xmlns:xlink="http://www.w3.org/1999/xlink" x="0px" y="0px"
	 viewBox="0 0 320 320" style="enable-background:new 0 0 320 320;" xml:space="preserve">
<style type="text/css">
	.st0{fill:#FFFFFF;stroke:#FFFFFF;stroke-miterlimit:10;}
</style>
<g id="Layer_2">
	<circle class="st0" cx="160" cy="160" r="158.7"/>
</g>
<g id="Layer_1">
	<g transform="translate(0.000000,320.000000) scale(0.100000,-0.100000)">
		<path d="M0,1600V0h1600h1600v1600v1600H1600H0V1600z M1168,1768l-2.7-571.5c-0.2-40.6-8.1-80.8-23.3-118.5v0
			c-48-120-167-212-306-237c-94-17-233-12-358,15l-28,6v100c0,91,2,100,18,95c145-47,228-56,321-36c70,15,112,46,141,104l0,0
			c16.4,32.9,25.1,69.1,25.3,105.9L958,1708l3,532H800H640v80v80h265h266L1168,1768z M2255,2380c135-33,254-122,302-226
			c30-67,41-190,24-274c-15-71-53-153-93-199c-42-48-135-118-175-132c-18-6-33-15-33-20c0-8,292-350,513-601l59-68h-135h-134
			l-257,305l-257,305h-145h-144v-305V860h-105h-105v771v771l318-5C2087,2394,2224,2388,2255,2380z"/>
		<path d="M1775.9,1970.4v-286l178,5c206,5,279.9,6.2,347.9,66.2c69,61,93.2,105.8,93.2,214.8c0,115-48.2,185-127.2,233
			c-70,41-144,53-335,53h-157V1970.4z"/>
	</g>
</g>
</svg>
